<svg xmlns="http://www.w3.org/2000/svg" width="1200" height="630" viewBox="0 0 1200 630">
  <defs>
    <linearGradient id="bg" x1="0%" y1="0%" x2="100%" y2="100%">
      <stop offset="0%" stop-color="#0d0d0d"/>
      <stop offset="100%" stop-color="#064e3b"/>
    </linearGradient>
    <linearGradient id="accent" x1="0%" y1="0%" x2="100%" y2="100%">
      <stop offset="0%" stop-color="#10b981"/>
      <stop offset="100%" stop-color="#059669"/>
    </linearGradient>
  </defs>
  <rect width="1200" height="630" fill="url(#bg)"/>
  <rect width="1200" height="630" fill="url(#bg)" opacity="0.3"/>
  <g opacity="0.04">
    <line x1="0" y1="0" x2="1200" y2="630" stroke="#fff" stroke-width="1"/>
    <line x1="0" y1="105" x2="1200" y2="735" stroke="#fff" stroke-width="0.5"/>
    <line x1="0" y1="210" x2="1200" y2="840" stroke="#fff" stroke-width="0.5"/>
    <line x1="0" y1="420" x2="1200" y2="1050" stroke="#fff" stroke-width="0.5"/>
    <line x1="0" y1="525" x2="1200" y2="1155" stroke="#fff" stroke-width="0.5"/>
    <line x1="200" y1="0" x2="200" y2="630" stroke="#fff" stroke-width="0.5"/>
    <line x1="600" y1="0" x2="600" y2="630" stroke="#fff" stroke-width="0.5"/>
    <line x1="1000" y1="0" x2="1000" y2="630" stroke="#fff" stroke-width="0.5"/>
  </g>
  <g transform="translate(80, 50)">
    <rect width="48" height="48" rx="10" fill="url(#accent)"/>
    <path d="M24 8 L24 22 L34 16 Z" fill="#fff" opacity="0.95"/>
    <path d="M24 22 L24 40 L14 28 Z" fill="#fff" opacity="0.6"/>
  </g>
  <text x="145" y="85" font-family="system-ui, -apple-system, sans-serif" font-weight="700" font-size="28" fill="#fff" letter-spacing="-0.02em">Xurya</text>
  <text x="80" y="260" font-family="system-ui, -apple-system, sans-serif" font-weight="700" font-size="72" fill="#fff" letter-spacing="-0.03em" line-height="1.1">Clean Energy</text>
  <text x="80" y="345" font-family="system-ui, -apple-system, sans-serif" font-weight="700" font-size="72" fill="#10b981" letter-spacing="-0.03em" line-height="1.1">For The Future</text>
  <text x="80" y="420" font-family="system-ui, -apple-system, sans-serif" font-weight="400" font-size="22" fill="#a3a3a3" letter-spacing="0">Premium renewable energy solutions for homes, factories, and cities.</text>
  <g transform="translate(80, 490)">
    <rect x="0" y="0" width="140" height="44" rx="22" fill="none" stroke="#10b981" stroke-width="1.5"/>
    <text x="70" y="27" font-family="system-ui, -apple-system, sans-serif" font-weight="600" font-size="15" fill="#10b981" text-anchor="middle">Start Your Project</text>
  </g>
  <circle cx="1100" cy="160" r="200" fill="#10b981" opacity="0.06"/>
  <circle cx="1050" cy="120" r="120" fill="#10b981" opacity="0.04"/>
  <g transform="translate(900, 340)" opacity="0.15">
    <path d="M0 60 Q 30 0, 60 60 Q 90 0, 120 60" stroke="#34d399" stroke-width="2" fill="none"/>
    <path d="M0 80 Q 30 20, 60 80 Q 90 20, 120 80" stroke="#34d399" stroke-width="1.5" fill="none"/>
  </g>
</svg>
